<svg xmlns="http://www.w3.org/2000/svg" fill="none" viewBox="4 0 450.78 186.17">
<g filter="url(#filter0_d_251_3)">
<path d="M163.696 66.5384H155.626C152.872 66.5384 150.769 64.9559 149.754 62.2331L137.152 24.0153C135.955 20.385 132.88 18.4315 129.417 17.9641H129.417H129.417C120.103 16.7021 107.995 13.3492 103.589 13.3492C98.1631 13.3492 94.8238 15.1995 86.893 15.1995C78.9622 15.1995 74.7877 4.09866 71.8657 0.860896C68.9437 -2.37687 54.7519 4.56104 46.4035 4.56104C38.0551 4.56104 28.8721 10.5738 28.8721 18.4365C28.8721 26.2992 20.9413 31.3872 12.1757 41.0998C3.40997 50.8127 14.8889 74.1698 21.3586 81.3387C27.8284 88.5076 36.3853 90.1265 46.4032 85.5012C56.4211 80.8759 59.9692 82.9572 64.7691 88.2762C69.5694 93.5953 69.7779 101.227 75.6219 107.702C81.466 114.177 78.5439 138.228 78.5439 148.866C78.5439 159.504 86.4747 172.917 92.736 179.855C98.9973 186.793 99.8319 184.48 109.433 179.855C119.033 175.23 126.546 153.029 135.312 143.316C144.078 133.603 142.408 119.265 142.408 110.94C142.408 102.614 158.687 86.4263 167.035 77.1761C175.384 67.926 163.696 66.5384 163.696 66.5384Z" fill="#F2902F"/>
<path d="M48.696 68V36.704H59.4C61.576 36.704 63.528 36.944 65.256 37.424C66.984 37.872 68.36 38.656 69.384 39.776C70.408 40.896 70.92 42.464 70.92 44.48C70.92 45.856 70.552 47.216 69.816 48.56C69.112 49.872 68.12 50.768 66.84 51.248V51.44C68.44 51.856 69.768 52.672 70.824 53.888C71.912 55.072 72.456 56.704 72.456 58.784C72.456 60.928 71.912 62.672 70.824 64.016C69.736 65.36 68.28 66.368 66.456 67.04C64.632 67.68 62.584 68 60.312 68H48.696ZM55.752 49.232H59.064C60.792 49.232 62.04 48.896 62.808 48.224C63.608 47.552 64.008 46.656 64.008 45.536C64.008 44.32 63.608 43.456 62.808 42.944C62.008 42.432 60.776 42.176 59.112 42.176H55.752V49.232ZM55.752 62.528H59.736C63.608 62.528 65.544 61.12 65.544 58.304C65.544 56.928 65.064 55.952 64.104 55.376C63.144 54.768 61.688 54.464 59.736 54.464H55.752V62.528ZM90.4785 68.576C87.6625 68.576 85.1825 67.92 83.0385 66.608C80.9265 65.296 79.2625 63.424 78.0465 60.992C76.8625 58.528 76.2705 55.6 76.2705 52.208C76.2705 48.784 76.8625 45.888 78.0465 43.52C79.2625 41.12 80.9265 39.296 83.0385 38.048C85.1825 36.768 87.6625 36.128 90.4785 36.128C93.2945 36.128 95.7585 36.768 97.8705 38.048C100.015 39.296 101.679 41.12 102.863 43.52C104.079 45.92 104.687 48.816 104.687 52.208C104.687 55.6 104.079 58.528 102.863 60.992C101.679 63.424 100.015 65.296 97.8705 66.608C95.7585 67.92 93.2945 68.576 90.4785 68.576ZM90.4785 62.48C92.6225 62.48 94.3185 61.552 95.5665 59.696C96.8145 57.84 97.4385 55.344 97.4385 52.208C97.4385 49.072 96.8145 46.624 95.5665 44.864C94.3185 43.104 92.6225 42.224 90.4785 42.224C88.3345 42.224 86.6385 43.104 85.3905 44.864C84.1425 46.624 83.5185 49.072 83.5185 52.208C83.5185 55.344 84.1425 57.84 85.3905 59.696C86.6385 61.552 88.3345 62.48 90.4785 62.48ZM110.571 68V36.704H121.851C124.059 36.704 126.075 37.008 127.899 37.616C129.723 38.192 131.179 39.184 132.267 40.592C133.355 42 133.899 43.952 133.899 46.448C133.899 48.752 133.387 50.656 132.363 52.16C131.371 53.632 130.027 54.736 128.331 55.472L135.435 68H127.515L121.515 56.72H117.627V68H110.571ZM117.627 51.104H121.275C123.131 51.104 124.539 50.72 125.499 49.952C126.491 49.152 126.987 47.984 126.987 46.448C126.987 44.912 126.491 43.84 125.499 43.232C124.539 42.624 123.131 42.32 121.275 42.32H117.627V51.104ZM140.009 68V36.704H147.257L155.417 52.256L158.489 59.168H158.681C158.553 57.504 158.377 55.648 158.153 53.6C157.929 51.552 157.817 49.6 157.817 47.744V36.704H164.536V68H157.289L149.129 52.4L146.057 45.584H145.865C146.025 47.312 146.201 49.168 146.393 51.152C146.617 53.136 146.729 55.056 146.729 56.912V68H140.009ZM184.324 68L178.516 36.704H185.764L187.924 51.344C188.116 52.976 188.324 54.624 188.548 56.288C188.772 57.92 188.98 59.568 189.172 61.232H189.364C189.684 59.568 189.988 57.92 190.276 56.288C190.596 54.624 190.916 52.976 191.236 51.344L194.596 36.704H200.596L203.956 51.344C204.276 52.912 204.58 54.528 204.868 56.192C205.188 57.856 205.508 59.536 205.828 61.232H206.02C206.244 59.536 206.452 57.872 206.644 56.24C206.868 54.576 207.092 52.944 207.316 51.344L209.476 36.704H216.244L210.676 68H201.796L198.724 53.792C198.468 52.576 198.228 51.36 198.004 50.144C197.812 48.896 197.636 47.696 197.476 46.544H197.284C197.092 47.696 196.884 48.896 196.66 50.144C196.468 51.36 196.244 52.576 195.988 53.792L193.06 68H184.324ZM220.587 68V36.704H240.171V42.656H227.643V48.944H238.299V54.848H227.643V62.048H240.651V68H220.587ZM246.884 68V36.704H253.94V62.048H266.324V68H246.884ZM271.727 68V36.704H278.783V62.048H291.167V68H271.727ZM313.524 52.16L312.756 55.04H319.428L318.708 52.16C318.292 50.592 317.86 48.928 317.412 47.168C316.996 45.408 316.58 43.712 316.164 42.08H315.972C315.588 43.744 315.188 45.456 314.772 47.216C314.388 48.944 313.972 50.592 313.524 52.16ZM302.196 68L311.988 36.704H320.484L330.276 68H322.788L320.868 60.56H311.316L309.396 68H302.196ZM333.696 68V36.704H353.424V42.656H340.752V49.904H351.6V55.856H340.752V68H333.696ZM358.868 68V36.704H370.148C372.356 36.704 374.372 37.008 376.196 37.616C378.02 38.192 379.476 39.184 380.564 40.592C381.652 42 382.196 43.952 382.196 46.448C382.196 48.752 381.684 50.656 380.66 52.16C379.668 53.632 378.324 54.736 376.628 55.472L383.732 68H375.812L369.812 56.72H365.924V68H358.868ZM365.924 51.104H369.572C371.428 51.104 372.836 50.72 373.796 49.952C374.788 49.152 375.284 47.984 375.284 46.448C375.284 44.912 374.788 43.84 373.796 43.232C372.836 42.624 371.428 42.32 369.572 42.32H365.924V51.104ZM388.305 68V36.704H395.361V68H388.305ZM415.799 68.576C413.175 68.576 410.759 67.968 408.551 66.752C406.343 65.536 404.567 63.744 403.223 61.376C401.911 58.976 401.255 56.032 401.255 52.544C401.255 49.088 401.927 46.144 403.271 43.712C404.647 41.248 406.455 39.376 408.695 38.096C410.967 36.784 413.415 36.128 416.039 36.128C418.055 36.128 419.863 36.544 421.463 37.376C423.063 38.176 424.391 39.12 425.447 40.208L421.703 44.72C420.903 43.984 420.055 43.392 419.159 42.944C418.295 42.464 417.303 42.224 416.183 42.224C414.775 42.224 413.479 42.624 412.295 43.424C411.143 44.224 410.215 45.376 409.511 46.88C408.839 48.384 408.503 50.192 408.503 52.304C408.503 55.504 409.191 58 410.567 59.792C411.943 61.584 413.783 62.48 416.087 62.48C417.367 62.48 418.503 62.192 419.495 61.616C420.519 61.04 421.415 60.352 422.183 59.552L425.927 63.968C423.303 67.04 419.927 68.576 415.799 68.576ZM438.024 52.16L437.256 55.04H443.928L443.208 52.16C442.792 50.592 442.36 48.928 441.912 47.168C441.496 45.408 441.08 43.712 440.664 42.08H440.472C440.088 43.744 439.688 45.456 439.272 47.216C438.888 48.944 438.472 50.592 438.024 52.16ZM426.696 68L436.488 36.704H444.984L454.776 68H447.288L445.368 60.56H435.816L433.896 68H426.696Z" fill="white"/>
<path d="M25.916 78.8595C19.1936 71.4103 5.73252 45.5283 16.2648 34H15.9878C13.3788 36.644 10.3328 39.5407 7.17566 43.039C-1.59003 52.7519 9.88885 76.1089 16.3586 83.2779C22.8284 90.4468 31.3853 92.0657 41.4032 87.4404C42.5248 86.9226 43.5617 86.4933 44.532 86.1385C37.3154 87.0403 31.0252 84.5207 25.916 78.8595Z" fill="#E57B1C"/>
<path d="M81.7198 149.988C81.7198 138.993 84.6418 114.135 78.7978 107.442C72.9541 100.749 72.7453 92.8613 67.945 87.3634C63.1447 81.8659 59.5966 79.7145 49.579 84.4952C49.1257 84.7115 48.6763 84.9101 48.2288 85.1001C53.4161 84.1728 56.2592 86.3268 59.7684 90.2151C64.5687 95.5341 64.7772 103.166 70.6212 109.641C76.4649 116.116 73.5432 140.167 73.5432 150.805C73.5432 161.443 81.474 174.856 87.7349 181.794C92.4014 186.964 94.0557 186.995 98.5689 184.762C91.9692 178.975 81.7198 162.308 81.7198 149.988Z" fill="#E57B1C"/>
<path d="M159.74 131.611C162.819 133.195 163.706 136.93 161.618 142.249C159.531 147.568 167.149 157.397 159.74 165.606C152.331 173.816 150.348 170.462 145.966 165.606C141.583 160.75 141.061 157.397 143.461 154.737C145.861 152.078 145.653 142.596 148.679 139.243C151.705 135.889 153.896 128.605 159.74 131.611Z" fill="#F2902F"/>
<path d="M154.33 165.606C149.947 160.75 149.425 157.397 151.825 154.737C154.225 152.078 154.017 142.596 157.043 139.243C158.553 137.569 159.856 134.916 161.508 133.052C161.041 132.463 160.452 131.977 159.74 131.611C153.896 128.605 151.705 135.889 148.679 139.243C145.653 142.596 145.861 152.078 143.461 154.737C141.061 157.397 141.583 160.75 145.966 165.606C149.727 169.774 151.724 172.827 156.896 168.423C156.099 167.619 155.269 166.648 154.33 165.606Z" fill="#E57B1C"/>
</g>
<defs>
<filter id="filter0_d_251_3" x="0" y="0" width="458.776" height="194.171" filterUnits="userSpaceOnUse" color-interpolation-filters="sRGB">
<feFlood flood-opacity="0" result="BackgroundImageFix"/>
<feColorMatrix in="SourceAlpha" type="matrix" values="0 0 0 0 0 0 0 0 0 0 0 0 0 0 0 0 0 0 127 0" result="hardAlpha"/>
<feOffset dy="4"/>
<feGaussianBlur stdDeviation="2"/>
<feComposite in2="hardAlpha" operator="out"/>
<feColorMatrix type="matrix" values="0 0 0 0 0 0 0 0 0 0 0 0 0 0 0 0 0 0 0.25 0"/>
<feBlend mode="normal" in2="BackgroundImageFix" result="effect1_dropShadow_251_3"/>
<feBlend mode="normal" in="SourceGraphic" in2="effect1_dropShadow_251_3" result="shape"/>
</filter>
</defs>
</svg>